<?xml version="1.0"?>
<svg id="Layer_1" style="enable-background:new 0 0 100 100;" version="1.1" viewBox="0 0 100 100" xml:space="preserve"
	 xmlns="http://www.w3.org/2000/svg"><style type="text/css">
	.st0{fill:#009966;}
</style>
    <g id="XMLID_1077_"><path class="st0" d="M27.5,39.7c0.3-0.3,0.5-0.7,0.6-1.2c0.1-0.4,0.1-0.9,0.2-1.5c0-0.6,0-1.3,0-2.2   c0-1.6-0.1-2.5-0.4-3.2c-0.3-0.6-0.8-0.9-1.1-0.9c-0.5-0.2-1.1-0.1-1.7,0.3L4.4,43.6l-0.1,0c-0.3,0.2-0.5,0.4-0.7,0.7   c-0.2,0.3-0.3,0.6-0.4,1c-0.1,0.3-0.1,0.7-0.2,1.2c0,0.5-0.1,1-0.1,1.6c0,1.2,0.1,2.1,0.2,2.8c0.2,0.9,0.5,1.5,1.1,1.9l20.8,12.7   c0.4,0.2,0.8,0.4,1.1,0.4c0.1,0,0.1,0,0.2,0c0.6,0,1.1-0.3,1.4-0.8c0.2-0.3,0.3-0.8,0.4-1.5c0.1-0.5,0.1-1.2,0.1-2.1   c0-0.9,0-1.7-0.1-2.3c0-0.6-0.1-1.1-0.2-1.5c-0.2-0.5-0.4-1-0.7-1.3c-0.2-0.2-0.5-0.4-0.9-0.6l-13.5-7.7l13.8-8   C27,40.1,27.3,39.9,27.5,39.7z" id="XMLID_1085_"/>
        <path class="st0"
              d="M96.9,46.6c0-0.5-0.1-0.9-0.2-1.2c-0.1-0.4-0.2-0.8-0.4-1c-0.2-0.3-0.4-0.6-0.7-0.7L74.9,31   c-0.6-0.3-1.1-0.4-1.7-0.3c-0.3,0.1-0.8,0.3-1.1,0.9c-0.3,0.6-0.4,1.6-0.4,3.2c0,0.9,0,1.7,0,2.2c0,0.6,0.1,1.1,0.2,1.5   c0.1,0.5,0.3,0.9,0.6,1.2c0.2,0.2,0.4,0.4,0.8,0.6l13.8,7.9l-13.5,7.7c-0.3,0.2-0.6,0.4-0.9,0.6c-0.3,0.3-0.6,0.7-0.7,1.3   c-0.1,0.4-0.2,0.9-0.2,1.5v0c0,0.6-0.1,1.3-0.1,2.3c0,0.9,0,1.5,0.1,2.1c0.1,0.6,0.2,1.1,0.4,1.4c0.3,0.5,0.8,0.8,1.4,0.8   c0.1,0,0.1,0,0.2,0c0.3,0,0.7-0.2,1.1-0.4l20.8-12.7c0.5-0.4,0.8-1,1-1.8c0.1-0.6,0.2-1.6,0.2-2.8C97,47.6,96.9,47.1,96.9,46.6z"
              id="XMLID_1084_"/>
        <path class="st0"
              d="M36.7,86.3c-0.1,0.3-0.2,0.5-0.4,0.7c-0.2,0.2-0.4,0.3-0.7,0.5c-0.3,0.1-0.7,0.2-1.1,0.3   c-0.4,0.1-1,0.1-1.6,0.1c-0.8,0-1.5,0-2-0.1c-0.5-0.1-0.9-0.2-1.2-0.4c-0.3-0.2-0.4-0.4-0.5-0.7c0-0.3,0-0.6,0.1-1l31.6-71.8   c0.1-0.3,0.2-0.6,0.4-0.8c0.2-0.2,0.4-0.4,0.7-0.5c0.3-0.1,0.6-0.2,1.1-0.3c0.5-0.1,1-0.1,1.6-0.1c0.8,0,1.5,0,2,0.1   c0.5,0.1,0.9,0.2,1.2,0.4c0.3,0.2,0.4,0.4,0.5,0.7c0,0.3,0,0.6-0.1,1L36.7,86.3z"
              id="XMLID_1081_"/></g></svg>